<svg width="153" height="81" viewBox="0 0 153 81" fill="none" xmlns="http://www.w3.org/2000/svg">
<path d="M9.8 78.5L9.4 75.3C9.18333 75.2167 8.97917 75.1167 8.7875 75C8.59583 74.8833 8.40833 74.7583 8.225 74.625L5.25 75.875L2.5 71.125L5.075 69.175C5.05833 69.0583 5.05 68.9458 5.05 68.8375V68.1625C5.05 68.0542 5.05833 67.9417 5.075 67.825L2.5 65.875L5.25 61.125L8.225 62.375C8.40833 62.2417 8.6 62.1167 8.8 62C9 61.8833 9.2 61.7833 9.4 61.7L9.8 58.5H15.3L15.7 61.7C15.9167 61.7833 16.1208 61.8833 16.3125 62C16.5042 62.1167 16.6917 62.2417 16.875 62.375L19.85 61.125L22.6 65.875L20.025 67.825C20.0417 67.9417 20.05 68.0542 20.05 68.1625V68.8375C20.05 68.9458 20.0333 69.0583 20 69.175L22.575 71.125L19.825 75.875L16.875 74.625C16.6917 74.7583 16.5 74.8833 16.3 75C16.1 75.1167 15.9 75.2167 15.7 75.3L15.3 78.5H9.8ZM12.6 72C13.5667 72 14.3917 71.6583 15.075 70.975C15.7583 70.2917 16.1 69.4667 16.1 68.5C16.1 67.5333 15.7583 66.7083 15.075 66.025C14.3917 65.3417 13.5667 65 12.6 65C11.6167 65 10.7875 65.3417 10.1125 66.025C9.4375 66.7083 9.1 67.5333 9.1 68.5C9.1 69.4667 9.4375 70.2917 10.1125 70.975C10.7875 71.6583 11.6167 72 12.6 72Z" fill="#F0D48D"/>
</svg>
