<svg width="34" height="34" viewBox="0 0 34 34" fill="none" xmlns="http://www.w3.org/2000/svg">
<path d="M11.8571 7.77778H8.42857C7.51926 7.77778 6.64719 8.07044 6.00421 8.59137C5.36122 9.1123 5 9.81884 5 10.5556V27.2222C5 27.9589 5.36122 28.6655 6.00421 29.1864C6.64719 29.7073 7.51926 30 8.42857 30H25.5714C26.4807 30 27.3528 29.7073 27.9958 29.1864C28.6388 28.6655 29 27.9589 29 27.2222V10.5556C29 9.81884 28.6388 9.1123 27.9958 8.59137C27.3528 8.07044 26.4807 7.77778 25.5714 7.77778H22.1429M11.8571 7.77778C11.8571 7.04107 12.2184 6.33453 12.8613 5.81359C13.5043 5.29266 14.3764 5 15.2857 5H18.7143C19.6236 5 20.4957 5.29266 21.1387 5.81359C21.7816 6.33453 22.1429 7.04107 22.1429 7.77778M11.8571 7.77778C11.8571 8.51449 12.2184 9.22103 12.8613 9.74196C13.5043 10.2629 14.3764 10.5556 15.2857 10.5556H18.7143C19.6236 10.5556 20.4957 10.2629 21.1387 9.74196C21.7816 9.22103 22.1429 8.51449 22.1429 7.77778M11.8571 24.4444V18.8889M17 24.4444V23.0556M22.1429 24.4444V21.6667" stroke="#F0D48D" stroke-width="4" stroke-linecap="round" stroke-linejoin="round"/>
</svg>
