<svg width="27" height="27" viewBox="0 0 27 27" fill="none" xmlns="http://www.w3.org/2000/svg">
<path d="M10.5005 2.00047L16.1672 24.6671M13.3338 13.3338L2.00049 16.1671M2.00049 4.83381C2.00049 4.08236 2.299 3.36169 2.83035 2.83034C3.36171 2.29898 4.08237 2.00047 4.83382 2.00047H21.8338C22.5853 2.00047 23.3059 2.29898 23.8373 2.83034C24.3686 3.36169 24.6672 4.08236 24.6672 4.83381V21.8338C24.6672 22.5853 24.3686 23.3059 23.8373 23.8373C23.3059 24.3686 22.5853 24.6671 21.8338 24.6671H4.83382C4.08237 24.6671 3.36171 24.3686 2.83035 23.8373C2.299 23.3059 2.00049 22.5853 2.00049 21.8338V4.83381Z" stroke="#EFD38D" stroke-width="4" stroke-linecap="round" stroke-linejoin="round"/>
</svg>
