<svg width="30" height="30" viewBox="0 0 30 30" fill="none" xmlns="http://www.w3.org/2000/svg">
<path d="M2 27.5V24.6667C2 23.1638 2.59702 21.7224 3.65973 20.6597C4.72243 19.597 6.16377 19 7.66667 19H13.3333C14.8362 19 16.2776 19.597 17.3403 20.6597C18.403 21.7224 19 23.1638 19 24.6667V27.5M20.4167 2.18417C21.6356 2.49627 22.716 3.20517 23.4875 4.19911C24.259 5.19306 24.6778 6.41552 24.6778 7.67376C24.6778 8.932 24.259 10.1545 23.4875 11.1484C22.716 12.1423 21.6356 12.8512 20.4167 13.1633M27.5 27.5V24.6667C27.4928 23.416 27.072 22.2028 26.3033 21.2162C25.5345 20.2297 24.461 19.5251 23.25 19.2125M4.83333 7.66667C4.83333 9.16956 5.43036 10.6109 6.49306 11.6736C7.55577 12.7363 8.99711 13.3333 10.5 13.3333C12.0029 13.3333 13.4442 12.7363 14.5069 11.6736C15.5696 10.6109 16.1667 9.16956 16.1667 7.66667C16.1667 6.16377 15.5696 4.72243 14.5069 3.65973C13.4442 2.59702 12.0029 2 10.5 2C8.99711 2 7.55577 2.59702 6.49306 3.65973C5.43036 4.72243 4.83333 6.16377 4.83333 7.66667Z" stroke="#F0D48D" stroke-width="4" stroke-linecap="round" stroke-linejoin="round"/>
</svg>
